<svg xmlns="http://www.w3.org/2000/svg" width="560" height="940" viewBox="0 0 560 940" role="img" aria-labelledby="title-B desc-B"><title id="title-B">Flipped · Facing TV</title><desc id="desc-B">Scaled proposed furniture plan. Kitchen lower left, hall on the left, three windows on the right. Blue ribbon indicates a 90 cm route target. Concept only.</desc><defs><marker id="arrow-B" viewBox="0 0 10 10" refX="9" refY="5" markerWidth="6" markerHeight="6" orient="auto"><path d="M0 0L10 5L0 10Z" fill="#367e89"/></marker></defs><g font-family="Arial, sans-serif"><rect width="560" height="940" fill="#fbfaf5"/><text x="30.00" y="42.00" font-size="23" fill="#326e68" text-anchor="start" font-weight="800" >B</text><text x="77.00" y="42.00" font-size="23" fill="#243f37" text-anchor="start" font-weight="750" >Flipped · Facing TV</text><text x="30.00" y="67.00" font-size="12" fill="#6d756b" text-anchor="start" font-weight="500" >TV + speakers top-right; four shelves behind the sofa</text><line x1="82.00" y1="111.68" x2="473.40" y2="111.68" stroke="#a48769" stroke-width="1" /><line x1="82.00" y1="106.36" x2="82.00" y2="118.52" stroke="#a48769" stroke-width="1" /><line x1="473.40" y1="106.36" x2="473.40" y2="118.52" stroke="#a48769" stroke-width="1" /><text x="277.70" y="105.60" font-size="11" fill="#8f6e50" text-anchor="middle" font-weight="500" >515 cm</text><text x="53.88" y="409.60" font-size="11" fill="#8f6e50" text-anchor="middle" font-weight="500" transform="rotate(-90 53.879999999999995 409.6)">721 cm nominal</text><rect x="82.00" y="136.00" width="391.40" height="547.96" rx="0" fill="#fffef9" stroke="#d9d4c7" stroke-width="1.1" opacity="1"/><line x1="120.00" y1="136.00" x2="120.00" y2="683.96" stroke="#e7e5db" stroke-width="0.55" /><line x1="158.00" y1="136.00" x2="158.00" y2="683.96" stroke="#e7e5db" stroke-width="0.55" /><line x1="196.00" y1="136.00" x2="196.00" y2="683.96" stroke="#e7e5db" stroke-width="0.55" /><line x1="234.00" y1="136.00" x2="234.00" y2="683.96" stroke="#e7e5db" stroke-width="0.55" /><line x1="272.00" y1="136.00" x2="272.00" y2="683.96" stroke="#e7e5db" stroke-width="0.55" /><line x1="310.00" y1="136.00" x2="310.00" y2="683.96" stroke="#e7e5db" stroke-width="0.55" /><line x1="348.00" y1="136.00" x2="348.00" y2="683.96" stroke="#e7e5db" stroke-width="0.55" /><line x1="386.00" y1="136.00" x2="386.00" y2="683.96" stroke="#e7e5db" stroke-width="0.55" /><line x1="424.00" y1="136.00" x2="424.00" y2="683.96" stroke="#e7e5db" stroke-width="0.55" /><line x1="462.00" y1="136.00" x2="462.00" y2="683.96" stroke="#e7e5db" stroke-width="0.55" /><line x1="82.00" y1="174.00" x2="473.40" y2="174.00" stroke="#e7e5db" stroke-width="0.55" /><line x1="82.00" y1="212.00" x2="473.40" y2="212.00" stroke="#e7e5db" stroke-width="0.55" /><line x1="82.00" y1="250.00" x2="473.40" y2="250.00" stroke="#e7e5db" stroke-width="0.55" /><line x1="82.00" y1="288.00" x2="473.40" y2="288.00" stroke="#e7e5db" stroke-width="0.55" /><line x1="82.00" y1="326.00" x2="473.40" y2="326.00" stroke="#e7e5db" stroke-width="0.55" /><line x1="82.00" y1="364.00" x2="473.40" y2="364.00" stroke="#e7e5db" stroke-width="0.55" /><line x1="82.00" y1="402.00" x2="473.40" y2="402.00" stroke="#e7e5db" stroke-width="0.55" /><line x1="82.00" y1="440.00" x2="473.40" y2="440.00" stroke="#e7e5db" stroke-width="0.55" /><line x1="82.00" y1="478.00" x2="473.40" y2="478.00" stroke="#e7e5db" stroke-width="0.55" /><line x1="82.00" y1="516.00" x2="473.40" y2="516.00" stroke="#e7e5db" stroke-width="0.55" /><line x1="82.00" y1="554.00" x2="473.40" y2="554.00" stroke="#e7e5db" stroke-width="0.55" /><line x1="82.00" y1="592.00" x2="473.40" y2="592.00" stroke="#e7e5db" stroke-width="0.55" /><line x1="82.00" y1="630.00" x2="473.40" y2="630.00" stroke="#e7e5db" stroke-width="0.55" /><line x1="82.00" y1="668.00" x2="473.40" y2="668.00" stroke="#e7e5db" stroke-width="0.55" /><rect x="230.20" y="200.60" width="220.40" height="144.40" rx="14" fill="#efe4d466" stroke="#d5c4a6" stroke-width="1.1" opacity="1" stroke-dasharray="2 4"/><polyline points="82.00,303.20 203.60,303.20 203.60,432.40 268.20,432.40 268.20,576.80" fill="none" stroke="#78aab2" stroke-width="68.4" opacity=".13" stroke-linejoin="miter" stroke-linecap="butt"/><polyline points="82.00,303.20 203.60,303.20 203.60,432.40 268.20,432.40 268.20,576.80" fill="none" stroke="#367e89" stroke-width="2.1" stroke-dasharray="7 5" marker-end="url(#arrow-B)"/><text x="203.60" y="371.60" font-size="8" fill="#367e89" text-anchor="middle" font-weight="500" transform="rotate(-90 203.6 371.6)">90 cm route target</text><rect x="82.00" y="474.96" width="152.00" height="45.60" rx="1" fill="#a9b990" stroke="#677d58" stroke-width="1.1" opacity="1"/><rect x="82.00" y="474.96" width="45.60" height="209.00" rx="1" fill="#a9b990" stroke="#677d58" stroke-width="1.1" opacity="1"/><rect x="82.00" y="638.36" width="205.20" height="45.60" rx="1" fill="#a9b990" stroke="#677d58" stroke-width="1.1" opacity="1"/><text x="164.08" y="500.80" font-size="11" fill="#33492d" text-anchor="middle" font-weight="750" >FIXED KITCHEN</text><text x="180.80" y="580.60" font-size="9" fill="#617450" text-anchor="middle" font-weight="500" >155 cm clear</text><text x="190.68" y="599.60" font-size="8" fill="#617450" text-anchor="middle" font-weight="500" >U opens to the right</text><rect x="82.00" y="474.96" width="152.00" height="3.04" rx="0" fill="#304c3f" stroke="#304c3f" stroke-width="1.1" opacity="1"/><rect x="465.80" y="183.12" width="7.60" height="72.96" rx="1" fill="#ddb45d" stroke="#b58e3b" stroke-width="1.1" opacity="1"/><rect x="465.80" y="357.92" width="7.60" height="72.96" rx="1" fill="#ddb45d" stroke="#b58e3b" stroke-width="1.1" opacity="1"/><rect x="465.80" y="538.04" width="7.60" height="72.96" rx="1" fill="#ddb45d" stroke="#b58e3b" stroke-width="1.1" opacity="1"/><rect x="82.00" y="136.00" width="121.60" height="60.80" rx="3" fill="#cfab82" stroke="#947d62" stroke-width="1.1" opacity="1"/><text x="142.80" y="169.44" font-size="8.5" fill="#263f37" text-anchor="middle" font-weight="600" >Desk · 160 × 80</text><rect x="89.60" y="196.80" width="106.40" height="68.40" rx="6" fill="#cfab8212" stroke="#b99b7e" stroke-width="1.1" opacity="1" stroke-dasharray="4 4"/><text x="142.80" y="231.00" font-size="8" fill="#8c7156" text-anchor="middle" font-weight="500" >Chair zone</text><rect x="82.00" y="348.80" width="26.60" height="98.80" rx="3" fill="#d6c9b0" stroke="#947d62" stroke-width="1.1" opacity="1"/><text x="95.30" y="398.20" font-size="8" fill="#29423d" text-anchor="middle" font-weight="500" transform="rotate(-90 95.3 398.2)">Library / closed base</text><rect x="291.00" y="653.56" width="182.40" height="30.40" rx="3" fill="#d6c9b0" stroke="#947d62" stroke-width="1.1" opacity="1"/><text x="382.20" y="671.80" font-size="8.5" fill="#263f37" text-anchor="middle" font-weight="600" >Sideboard · 240 × 40</text><rect x="298.60" y="142.08" width="91.20" height="30.40" rx="2" fill="#d6c9b0" stroke="#947d62" stroke-width="1.1" opacity="1"/><rect x="302.40" y="145.88" width="3.80" height="3.80" rx="0" fill="#947d62" stroke="#947d62" stroke-width="1.1" opacity="1"/><rect x="382.20" y="145.88" width="3.80" height="3.80" rx="0" fill="#947d62" stroke="#947d62" stroke-width="1.1" opacity="1"/><rect x="302.40" y="164.88" width="3.80" height="3.80" rx="0" fill="#947d62" stroke="#947d62" stroke-width="1.1" opacity="1"/><rect x="382.20" y="164.88" width="3.80" height="3.80" rx="0" fill="#947d62" stroke="#947d62" stroke-width="1.1" opacity="1"/><text x="344.20" y="160.32" font-size="8.5" fill="#263f37" text-anchor="middle" font-weight="600" >TV table · 120 × 40</text><rect x="297.46" y="136.00" width="93.48" height="6.08" rx="2" fill="#253936" stroke="#253936" stroke-width="1.1" opacity="1"/><text x="344.20" y="132.20" font-size="9" fill="#29423d" text-anchor="middle" font-weight="700" >TV · 55 in</text><rect x="267.52" y="143.60" width="22.34" height="28.20" rx="2" fill="#354943" stroke="#203c33" stroke-width="1.1" opacity="1"/><circle cx="278.688" cy="157.698" r="5" fill="#182d26"/><text x="278.69" y="180.92" font-size="8" fill="#354943" text-anchor="middle" font-weight="500" >Focal</text><rect x="398.54" y="143.60" width="22.34" height="28.20" rx="2" fill="#354943" stroke="#203c33" stroke-width="1.1" opacity="1"/><circle cx="409.712" cy="157.698" r="5" fill="#182d26"/><text x="409.71" y="180.92" font-size="8" fill="#354943" text-anchor="middle" font-weight="500" >Focal</text><polygon points="370.80,218.08 443.00,218.08 443.00,339.68 245.40,339.68 245.40,267.48 370.80,267.48" fill="#70938a" stroke="#456d62" stroke-width="1.5" /><rect x="250.72" y="322.96" width="186.96" height="11.40" rx="3" fill="#537c70" stroke="#456d62" stroke-width="1.1" opacity="1"/><line x1="311.27" y1="273.56" x2="311.27" y2="320.68" stroke="#52776b" stroke-width="0.8" /><line x1="377.13" y1="273.56" x2="377.13" y2="320.68" stroke="#52776b" stroke-width="0.8" /><line x1="376.12" y1="259.88" x2="426.28" y2="259.88" stroke="#52776b" stroke-width="0.8" /><text x="344.20" y="307.76" font-size="9" fill="#173e34" text-anchor="middle" font-weight="700" >L sofa · 260 × 160</text><rect x="310.00" y="215.80" width="45.60" height="26.60" rx="7" fill="#bd805b" stroke="#947d62" stroke-width="1.1" opacity="1"/><text x="332.80" y="232.14" font-size="8.5" fill="#263f37" text-anchor="middle" font-weight="600" >Coffee</text><rect x="266.68" y="347.28" width="155.04" height="27.36" rx="1" fill="#c5a583" stroke="#383e37" stroke-width="1.1" opacity="1"/><line x1="305.44" y1="347.28" x2="305.44" y2="374.64" stroke="#383e37" stroke-width="1.5" /><line x1="344.20" y1="347.28" x2="344.20" y2="374.64" stroke="#383e37" stroke-width="1.5" /><line x1="382.96" y1="347.28" x2="382.96" y2="374.64" stroke="#383e37" stroke-width="1.5" /><text x="344.20" y="384.52" font-size="8.5" fill="#756249" text-anchor="middle" font-weight="600" >4 × FJÄLLBO · 204 × 36</text><rect x="306.20" y="493.96" width="136.80" height="68.40" rx="7" fill="#bd805b" stroke="#947d62" stroke-width="1.1" opacity="1"/><text x="374.60" y="531.20" font-size="8.5" fill="#263f37" text-anchor="middle" font-weight="600" >Dining · 180 × 90</text><rect x="311.90" y="450.64" width="34.20" height="34.20" rx="7" fill="#e8dcc7" stroke="#a9987d" stroke-width="1.1" opacity="1"/><line x1="316.46" y1="456.72" x2="341.54" y2="456.72" stroke="#a9987d" stroke-width="2" /><rect x="357.50" y="450.64" width="34.20" height="34.20" rx="7" fill="#e8dcc7" stroke="#a9987d" stroke-width="1.1" opacity="1"/><line x1="362.06" y1="456.72" x2="387.14" y2="456.72" stroke="#a9987d" stroke-width="2" /><rect x="403.10" y="450.64" width="34.20" height="34.20" rx="7" fill="#e8dcc7" stroke="#a9987d" stroke-width="1.1" opacity="1"/><line x1="407.66" y1="456.72" x2="432.74" y2="456.72" stroke="#a9987d" stroke-width="2" /><rect x="311.90" y="567.68" width="34.20" height="34.20" rx="7" fill="#e8dcc7" stroke="#a9987d" stroke-width="1.1" opacity="1"/><line x1="316.46" y1="595.80" x2="341.54" y2="595.80" stroke="#a9987d" stroke-width="2" /><rect x="357.50" y="567.68" width="34.20" height="34.20" rx="7" fill="#e8dcc7" stroke="#a9987d" stroke-width="1.1" opacity="1"/><line x1="362.06" y1="595.80" x2="387.14" y2="595.80" stroke="#a9987d" stroke-width="2" /><rect x="403.10" y="567.68" width="34.20" height="34.20" rx="7" fill="#e8dcc7" stroke="#a9987d" stroke-width="1.1" opacity="1"/><line x1="407.66" y1="595.80" x2="432.74" y2="595.80" stroke="#a9987d" stroke-width="2" /><line x1="82.00" y1="136.00" x2="473.40" y2="136.00" stroke="#314e45" stroke-width="4" /><line x1="82.00" y1="136.00" x2="82.00" y2="265.20" stroke="#314e45" stroke-width="4" /><line x1="82.00" y1="326.00" x2="82.00" y2="683.96" stroke="#314e45" stroke-width="4" /><line x1="82.00" y1="683.96" x2="473.40" y2="683.96" stroke="#314e45" stroke-width="4" /><line x1="473.40" y1="136.00" x2="473.40" y2="183.12" stroke="#314e45" stroke-width="4" /><line x1="473.40" y1="256.08" x2="473.40" y2="357.92" stroke="#314e45" stroke-width="4" /><line x1="473.40" y1="430.88" x2="473.40" y2="538.04" stroke="#314e45" stroke-width="4" /><line x1="473.40" y1="611.00" x2="473.40" y2="683.96" stroke="#314e45" stroke-width="4" /><line x1="473.40" y1="183.12" x2="473.40" y2="256.08" stroke="#5c9aad" stroke-width="5" /><text x="495.44" y="222.64" font-size="10" fill="#51899a" text-anchor="middle" font-weight="700" >W1</text><line x1="473.40" y1="357.92" x2="473.40" y2="430.88" stroke="#5c9aad" stroke-width="5" /><text x="495.44" y="397.44" font-size="10" fill="#51899a" text-anchor="middle" font-weight="700" >W2</text><line x1="473.40" y1="538.04" x2="473.40" y2="611.00" stroke="#5c9aad" stroke-width="5" /><text x="495.44" y="577.56" font-size="10" fill="#51899a" text-anchor="middle" font-weight="700" >W3</text><line x1="82.00" y1="265.20" x2="82.00" y2="326.00" stroke="#c37b50" stroke-width="3" stroke-dasharray="5 4"/><text x="59.20" y="288.00" font-size="10" fill="#a96740" text-anchor="middle" font-weight="700" >HALL</text><text x="59.20" y="303.20" font-size="9" fill="#a96740" text-anchor="middle" font-weight="500" >80 cm</text><line x1="344.20" y1="265.20" x2="344.20" y2="181.60" stroke="#6e8c74" stroke-width="1.4" stroke-dasharray="4 5"/><text x="332.80" y="255.32" font-size="10" fill="#326e68" text-anchor="middle" font-weight="700" >Faces TV ↑</text><text x="338.12" y="193.76" font-size="9" fill="#326e68" text-anchor="middle" font-weight="500" >~2.2 m eye → TV</text><text x="329.00" y="345.76" font-size="8" fill="#8f6e50" text-anchor="middle" font-weight="500" >10 cm spacer · NOT a path</text><text x="344.20" y="399.72" font-size="8" fill="#a46139" text-anchor="middle" font-weight="700" >136 cm high · anchoring required</text><line x1="454.40" y1="374.64" x2="454.40" y2="493.96" stroke="#a48769" stroke-width="1.3" /><line x1="449.08" y1="374.64" x2="459.72" y2="374.64" stroke="#a48769" stroke-width="1" /><line x1="449.08" y1="493.96" x2="459.72" y2="493.96" stroke="#a48769" stroke-width="1" /><text x="495.44" y="452.92" font-size="9" fill="#8f6e50" text-anchor="middle" font-weight="700" >157 cm</text><line x1="454.40" y1="562.36" x2="454.40" y2="653.56" stroke="#a48769" stroke-width="1.3" /><line x1="449.08" y1="562.36" x2="459.72" y2="562.36" stroke="#a48769" stroke-width="1" /><line x1="449.08" y1="653.56" x2="459.72" y2="653.56" stroke="#a48769" stroke-width="1" /><text x="495.44" y="618.60" font-size="9" fill="#8f6e50" text-anchor="middle" font-weight="700" >120 cm</text><text x="85.00" y="727.00" font-size="10" fill="#718071" text-anchor="middle" font-weight="700" >OPENNESS</text><text x="85.00" y="750.00" font-size="14" fill="#326e68" text-anchor="middle" font-weight="750" >3.5/5</text><text x="210.00" y="727.00" font-size="10" fill="#718071" text-anchor="middle" font-weight="700" >COSINESS</text><text x="210.00" y="750.00" font-size="14" fill="#326e68" text-anchor="middle" font-weight="750" >5/5</text><text x="335.00" y="727.00" font-size="10" fill="#718071" text-anchor="middle" font-weight="700" >STORAGE</text><text x="335.00" y="750.00" font-size="14" fill="#326e68" text-anchor="middle" font-weight="750" >4.5/5</text><text x="460.00" y="727.00" font-size="10" fill="#718071" text-anchor="middle" font-weight="700" >PATHS</text><text x="460.00" y="750.00" font-size="14" fill="#326e68" text-anchor="middle" font-weight="750" >4/5</text><text x="30.00" y="782.00" font-size="11" fill="#324e42" text-anchor="start" font-weight="650" >Better TV + audio alignment · generous dining approach</text><text x="30.00" y="810.00" font-size="9" fill="#957250" text-anchor="start" font-weight="750" >TRADE-OFF</text><text x="30.00" y="830.00" font-size="11" fill="#6e756a" text-anchor="start" font-weight="500" >136 cm-high shelf divider; safe anchoring is unresolved.</text><text x="30.00" y="883.00" font-size="10" fill="#7b8177" text-anchor="start" font-weight="500" >Furniture sizes are test footprints, not purchase recommendations.</text><text x="30.00" y="901.00" font-size="9" fill="#7b8177" text-anchor="start" font-weight="500" >Fixed geometry: 515 × 721 cm · ceiling 255 cm · known 4 cm mismatch.</text><text x="30.00" y="919.00" font-size="9" fill="#9c6b42" text-anchor="start" font-weight="500" >B: FJÄLLBO anchoring must be solved before this layout is installed.</text></g></svg>